<svg xmlns="http://www.w3.org/2000/svg" viewBox="0 0 512 512"><defs><style>.cls-1{fill:#f1a537;}</style></defs><title>cross</title><g id="Layer_2" data-name="Layer 2"><g id="Layer_1-2" data-name="Layer 1"><path class="cls-1" d="M385,256,505.24,135.72a23.11,23.11,0,0,0,0-32.66l-96.3-96.3a23.11,23.11,0,0,0-32.66,0L256,127,135.72,6.76a23.11,23.11,0,0,0-32.66,0l-96.3,96.3a23.11,23.11,0,0,0,0,32.66L127,256,6.76,376.28a23.11,23.11,0,0,0,0,32.66l96.3,96.29a23.09,23.09,0,0,0,32.66,0L256,385,376.28,505.23a23.09,23.09,0,0,0,32.66,0l96.29-96.29a23.09,23.09,0,0,0,0-32.66Z"/></g></g></svg>