<svg xmlns="http://www.w3.org/2000/svg" viewBox="0 0 681.19 49.89"><defs><style>.cls-1{fill:#fff;}</style></defs><title>half-life</title><g id="Layer_2" data-name="Layer 2"><g id="Layer_1-2" data-name="Layer 1"><rect id="rect4561" class="cls-1" x="22.74" width="8.42" height="47.18"/><rect id="rect4561-9" class="cls-1" width="8.42" height="47.18"/><rect id="rect4614" class="cls-1" x="0.06" y="18.65" width="30.96" height="7.74"/><path id="path21-0" class="cls-1" d="M114.24,49.89l-10-25.48L89.45,47.63H80.21L100.79,14.4,98.48,7.83h-8V0h13.72L120,40.07l6.92-2.26,2.31,7.76Z"/><rect id="rect4633" class="cls-1" x="180.36" y="0.07" width="8.29" height="47.1"/><rect id="rect4614-3" class="cls-1" x="180.87" y="39.54" width="31.13" height="7.63"/><rect id="rect4633-6" class="cls-1" x="266.65" y="0.07" width="8.43" height="47.17"/><rect id="rect4614-3-1" class="cls-1" x="266.68" y="18.84" width="22.13" height="7.63"/><rect id="rect4614-2" class="cls-1" x="266.73" y="0.07" width="25.33" height="7.76"/><rect id="rect4633-6-5" class="cls-1" x="571.92" y="0.07" width="8.43" height="47.17"/><rect id="rect4614-3-1-5" class="cls-1" x="571.95" y="18.84" width="22.13" height="7.63"/><rect id="rect4614-2-0" class="cls-1" x="572" y="0.07" width="25.33" height="7.76"/><rect id="rect4633-1" class="cls-1" x="399.33" y="0.07" width="8.29" height="47.1"/><rect id="rect4614-3-7" class="cls-1" x="399.84" y="39.54" width="31.13" height="7.63"/><rect id="rect4752" class="cls-1" x="341.03" y="18.41" width="22.16" height="8.88"/><rect id="rect4770" class="cls-1" x="495.57" y="0.07" width="8.23" height="47.24"/><rect id="rect4772" class="cls-1" x="651.47" y="0.07" width="28.86" height="7.7"/><rect id="rect4774" class="cls-1" x="651.47" y="7.77" width="8.29" height="39.47"/><rect id="rect4778" class="cls-1" x="659.77" y="39.6" width="21.42" height="7.63"/><rect id="rect4780" class="cls-1" x="659.72" y="18.71" width="17.89" height="7.76"/></g></g></svg>