<svg xmlns="http://www.w3.org/2000/svg" viewBox="0 0 632.04 39.48"><defs><style>.cls-1{fill:#fff;}</style></defs><title>half-life-wider</title><g id="Layer_2" data-name="Layer 2"><g id="Layer_1-2" data-name="Layer 1"><polygon class="cls-1" points="17.99 0 17.99 14.76 6.66 14.76 6.66 0 0 0 0 37.34 6.66 37.34 6.66 20.88 17.99 20.88 17.99 37.34 24.66 37.34 24.66 0 17.99 0"/><path id="path21-0" class="cls-1" d="M99.4,39.48l-8-20.16L79.79,37.69H72.47l16.29-26.3-1.83-5.2H80.59V0H91.45l12.47,31.71,5.48-1.79,1.82,6.14Z"/><polygon class="cls-1" points="170.28 31.29 170.28 0.06 163.72 0.06 163.72 37.33 164.13 37.33 170.28 37.33 188.76 37.33 188.76 31.29 170.28 31.29"/><polygon class="cls-1" points="264.11 6.2 264.11 0.06 250.68 0.06 250.68 0.05 244 0.05 244 37.38 250.68 37.38 250.68 20.95 261.54 20.95 261.54 14.91 250.68 14.91 250.68 6.2 264.11 6.2"/><polygon class="cls-1" points="553.67 6.2 553.67 0.06 540.24 0.06 540.24 0.05 533.57 0.05 533.57 37.38 540.24 37.38 540.24 20.95 551.11 20.95 551.11 14.91 540.24 14.91 540.24 6.2 553.67 6.2"/><polygon class="cls-1" points="379.56 31.29 379.56 0.06 373 0.06 373 37.33 373.4 37.33 373.4 37.33 398.04 37.33 398.04 31.29 379.56 31.29"/><rect id="rect4752" class="cls-1" x="314.86" y="14.57" width="17.53" height="7.03"/><rect id="rect4770" class="cls-1" x="461.16" y="0.05" width="6.51" height="37.38"/><polygon class="cls-1" points="615.09 31.34 615.09 20.95 629.21 20.95 629.21 14.8 615.09 14.8 615.09 6.14 631.36 6.14 631.36 0.05 608.52 0.05 608.52 6.14 608.52 37.38 615.09 37.38 615.09 37.38 632.04 37.38 632.04 31.34 615.09 31.34"/></g></g></svg>